<svg viewBox="0 0 60 25" fill="none" xmlns="http://www.w3.org/2000/svg">
  <path d="M59.64 14.28c0-4.59-2.29-6.87-6.22-6.87-4.12 0-6.75 2.53-6.75 6.69 0 5.24 3.39 6.78 6.92 6.78 1.63 0 3.12-.29 4.41-.9v-2.84c-1.17.5-2.5.76-3.81.76-1.88 0-3.41-.53-3.66-2.28h11.97c.06-.47.14-1.02.14-1.34zm-9.12-2.1c0-1.21.75-1.95 2.19-1.95 1.25 0 1.88.64 1.88 1.95h-4.07zM34.33 7.69c-1.15-.31-2.45-.31-3.53 0V20.7h3.53V7.69zm0-5.46c-1.15-.31-2.45-.31-3.53 0v3.42c1.15.31 2.45.31 3.53 0V2.23zM45.16 11.23c0-2.31-1.39-3.82-3.72-3.82-2.34 0-4.04 1.51-4.04 3.82v9.47h3.53v-6.25c0-1.13.56-1.57 1.34-1.57.51 0 .86.22.86.85v6.97h3.53v-9.47zM25.43 11.23c0-2.31-1.39-3.82-3.72-3.82-2.34 0-4.04 1.51-4.04 3.82v9.47h3.53v-6.25c0-1.13.56-1.57 1.34-1.57.51 0 .86.22.86.85v6.97h3.53v-9.47zM14.9 11.02c0-2.14-1.34-3.61-3.63-3.61-.92 0-2.13.31-3.13.88V2.13C7.13 1.82 5.83 1.82 4.75 2.13v17.44c1.1.53 2.51.88 3.88.88 2.39 0 6.27-1.13 6.27-5.91V11.02zm-3.53 3.61c0 1.25-.86 1.78-1.99 1.78-.49 0-.9-.1-1.22-.24v-5.22c.36-.2.8-.31 1.25-.31 1.13 0 1.96.53 1.96 1.78v2.21zM1.46 9.8c0-1.29 1.15-1.74 3.09-2.02l4.13-.59c.04-1.92-1.34-2.58-3.32-2.58-1.55 0-3.39.38-4.83 1.11V2.85c1.55-.65 3.53-.98 5.6-.98 4.26 0 6.55 1.9 6.55 6.13v7.41c0 1.74 1.41 2.39 2.5 2.58v2.53c-1.15.19-2.27.19-3.23-.19-1-.41-1.46-1.35-1.55-2.31-1.15.93-2.61 1.43-4.14 1.43-3.05 0-4.8-1.72-4.8-4.32V11.8c0-1.23 1.15-1.63 3.09-1.9l4.13-.57v-.55c0-.68-.41-1.01-1.35-1.01-.84 0-1.42.27-2.02.59v3.45H1.46V9.8zm5.95 4.83c0 .65.51 1.02 1.35 1.02.39 0 .81-.13 1.17-.35v-2.14c-.38.08-.79.13-1.17.18-.84.07-1.35.41-1.35 1.05v.24z" fill="currentColor"/>
</svg>